<mxfile host="app.diagrams.net" modified="2023-11-07T07:48:59.541Z" agent="Mozilla/5.0 (Windows NT 10.0; Win64; x64) AppleWebKit/537.36 (KHTML, like Gecko) Chrome/119.0.0.0 Safari/537.36 Edg/119.0.0.0" etag="D4usx44BJE-2tRZYR-Fp" version="22.0.8" type="github" pages="2">
  <diagram name="Page-1" id="QpkYqCfQvy7W9XSa80YT">
    <mxGraphModel dx="1042" dy="535" grid="1" gridSize="10" guides="1" tooltips="1" connect="1" arrows="1" fold="1" page="1" pageScale="1" pageWidth="850" pageHeight="1100" math="0" shadow="0">
      <root>
        <mxCell id="0" />
        <mxCell id="1" parent="0" />
        <mxCell id="GX1pWTgREPObPJ4Cj5U--50" value="Đại lý" style="rounded=0;whiteSpace=wrap;html=1;" parent="1" vertex="1">
          <mxGeometry x="110" y="130" width="120" height="70" as="geometry" />
        </mxCell>
        <mxCell id="GX1pWTgREPObPJ4Cj5U--51" value="Quản lý cung ứng mặt hàng kẹo cho đại lý ..." style="ellipse;whiteSpace=wrap;html=1;" parent="1" vertex="1">
          <mxGeometry x="390" y="130" width="120" height="90" as="geometry" />
        </mxCell>
        <mxCell id="GX1pWTgREPObPJ4Cj5U--56" value="" style="endArrow=classic;html=1;rounded=0;entryX=1;entryY=0.5;entryDx=0;entryDy=0;exitX=-0.004;exitY=0.406;exitDx=0;exitDy=0;exitPerimeter=0;" parent="1" source="GX1pWTgREPObPJ4Cj5U--51" target="GX1pWTgREPObPJ4Cj5U--50" edge="1">
          <mxGeometry width="50" height="50" relative="1" as="geometry">
            <mxPoint x="250" y="260" as="sourcePoint" />
            <mxPoint x="270" y="180" as="targetPoint" />
          </mxGeometry>
        </mxCell>
        <mxCell id="GX1pWTgREPObPJ4Cj5U--57" value="Phiếu xuất" style="edgeLabel;html=1;align=center;verticalAlign=middle;resizable=0;points=[];" parent="GX1pWTgREPObPJ4Cj5U--56" vertex="1" connectable="0">
          <mxGeometry x="0.205" y="-1" relative="1" as="geometry">
            <mxPoint x="16" y="-10" as="offset" />
          </mxGeometry>
        </mxCell>
        <mxCell id="GX1pWTgREPObPJ4Cj5U--58" value="" style="endArrow=classic;html=1;rounded=0;exitX=-0.012;exitY=0.58;exitDx=0;exitDy=0;exitPerimeter=0;entryX=1;entryY=0.75;entryDx=0;entryDy=0;" parent="1" source="GX1pWTgREPObPJ4Cj5U--51" target="GX1pWTgREPObPJ4Cj5U--50" edge="1">
          <mxGeometry width="50" height="50" relative="1" as="geometry">
            <mxPoint x="250" y="300" as="sourcePoint" />
            <mxPoint x="230" y="176" as="targetPoint" />
          </mxGeometry>
        </mxCell>
        <mxCell id="GX1pWTgREPObPJ4Cj5U--60" value="Hóa đơn/Thu tiền" style="edgeLabel;html=1;align=center;verticalAlign=middle;resizable=0;points=[];" parent="GX1pWTgREPObPJ4Cj5U--58" vertex="1" connectable="0">
          <mxGeometry x="0.202" y="-3" relative="1" as="geometry">
            <mxPoint x="16" y="-6" as="offset" />
          </mxGeometry>
        </mxCell>
        <mxCell id="GX1pWTgREPObPJ4Cj5U--64" value="Quản lý" style="rounded=0;whiteSpace=wrap;html=1;" parent="1" vertex="1">
          <mxGeometry x="650" y="145" width="120" height="60" as="geometry" />
        </mxCell>
        <mxCell id="GX1pWTgREPObPJ4Cj5U--65" value="" style="endArrow=classic;html=1;rounded=0;exitX=1;exitY=0.5;exitDx=0;exitDy=0;entryX=0;entryY=0.5;entryDx=0;entryDy=0;" parent="1" source="GX1pWTgREPObPJ4Cj5U--51" target="GX1pWTgREPObPJ4Cj5U--64" edge="1">
          <mxGeometry width="50" height="50" relative="1" as="geometry">
            <mxPoint x="560" y="210" as="sourcePoint" />
            <mxPoint x="610" y="160" as="targetPoint" />
          </mxGeometry>
        </mxCell>
        <mxCell id="GX1pWTgREPObPJ4Cj5U--66" value="Báo cáo/Thống kê" style="edgeLabel;html=1;align=center;verticalAlign=middle;resizable=0;points=[];" parent="GX1pWTgREPObPJ4Cj5U--65" vertex="1" connectable="0">
          <mxGeometry x="-0.3422" y="5" relative="1" as="geometry">
            <mxPoint x="13" y="-11" as="offset" />
          </mxGeometry>
        </mxCell>
        <mxCell id="GX1pWTgREPObPJ4Cj5U--68" value="" style="endArrow=classic;html=1;rounded=0;exitX=1;exitY=0.25;exitDx=0;exitDy=0;entryX=0.058;entryY=0.198;entryDx=0;entryDy=0;entryPerimeter=0;" parent="1" source="GX1pWTgREPObPJ4Cj5U--50" target="GX1pWTgREPObPJ4Cj5U--51" edge="1">
          <mxGeometry width="50" height="50" relative="1" as="geometry">
            <mxPoint x="310" y="130" as="sourcePoint" />
            <mxPoint x="360" y="80" as="targetPoint" />
          </mxGeometry>
        </mxCell>
        <mxCell id="GX1pWTgREPObPJ4Cj5U--69" value="Đơn hàng" style="edgeLabel;html=1;align=center;verticalAlign=middle;resizable=0;points=[];" parent="GX1pWTgREPObPJ4Cj5U--68" vertex="1" connectable="0">
          <mxGeometry x="-0.0997" y="4" relative="1" as="geometry">
            <mxPoint x="5" y="-4" as="offset" />
          </mxGeometry>
        </mxCell>
        <mxCell id="GX1pWTgREPObPJ4Cj5U--70" value="Xưởng sản xuất" style="rounded=0;whiteSpace=wrap;html=1;" parent="1" vertex="1">
          <mxGeometry x="390" y="340" width="120" height="60" as="geometry" />
        </mxCell>
        <mxCell id="GX1pWTgREPObPJ4Cj5U--71" value="" style="endArrow=classic;html=1;rounded=0;entryX=0.5;entryY=0;entryDx=0;entryDy=0;" parent="1" edge="1">
          <mxGeometry width="50" height="50" relative="1" as="geometry">
            <mxPoint x="470" y="220" as="sourcePoint" />
            <mxPoint x="470" y="340" as="targetPoint" />
          </mxGeometry>
        </mxCell>
        <mxCell id="GX1pWTgREPObPJ4Cj5U--72" value="Phiếu nhập" style="edgeLabel;html=1;align=center;verticalAlign=middle;resizable=0;points=[];" parent="GX1pWTgREPObPJ4Cj5U--71" vertex="1" connectable="0">
          <mxGeometry x="-0.0583" y="1" relative="1" as="geometry">
            <mxPoint y="13" as="offset" />
          </mxGeometry>
        </mxCell>
        <mxCell id="GX1pWTgREPObPJ4Cj5U--75" value="" style="endArrow=classic;html=1;rounded=0;exitX=0.347;exitY=0.991;exitDx=0;exitDy=0;exitPerimeter=0;" parent="1" source="GX1pWTgREPObPJ4Cj5U--51" edge="1">
          <mxGeometry width="50" height="50" relative="1" as="geometry">
            <mxPoint x="360" y="280" as="sourcePoint" />
            <mxPoint x="420" y="340" as="targetPoint" />
          </mxGeometry>
        </mxCell>
        <mxCell id="GX1pWTgREPObPJ4Cj5U--76" value="Chất lượng&lt;br&gt;Số lượng" style="edgeLabel;html=1;align=center;verticalAlign=middle;resizable=0;points=[];" parent="GX1pWTgREPObPJ4Cj5U--75" vertex="1" connectable="0">
          <mxGeometry x="0.3233" y="-1" relative="1" as="geometry">
            <mxPoint x="2" y="-39" as="offset" />
          </mxGeometry>
        </mxCell>
      </root>
    </mxGraphModel>
  </diagram>
  <diagram id="8eoR38WOZ_Q3hAOCFKpN" name="Page-2">
    <mxGraphModel dx="1042" dy="535" grid="1" gridSize="10" guides="1" tooltips="1" connect="1" arrows="1" fold="1" page="1" pageScale="1" pageWidth="850" pageHeight="1100" math="0" shadow="0">
      <root>
        <mxCell id="0" />
        <mxCell id="1" parent="0" />
        <mxCell id="PxtAMPSgiuRWDMCf-Oh9-1" value="PHÒNG BAN" style="rounded=0;whiteSpace=wrap;html=1;" vertex="1" parent="1">
          <mxGeometry x="130" y="190" width="100" height="40" as="geometry" />
        </mxCell>
        <mxCell id="PxtAMPSgiuRWDMCf-Oh9-2" value="NHÂN VIÊN" style="rounded=0;whiteSpace=wrap;html=1;" vertex="1" parent="1">
          <mxGeometry x="490" y="180" width="100" height="40" as="geometry" />
        </mxCell>
        <mxCell id="PxtAMPSgiuRWDMCf-Oh9-3" value="ĐỀ ÁN" style="rounded=0;whiteSpace=wrap;html=1;" vertex="1" parent="1">
          <mxGeometry x="250" y="370" width="100" height="40" as="geometry" />
        </mxCell>
        <mxCell id="PxtAMPSgiuRWDMCf-Oh9-4" value="&lt;u&gt;IDPHONGBAN&lt;/u&gt;" style="ellipse;whiteSpace=wrap;html=1;" vertex="1" parent="1">
          <mxGeometry x="50" y="80" width="110" height="40" as="geometry" />
        </mxCell>
        <mxCell id="PxtAMPSgiuRWDMCf-Oh9-5" value="TENPHONGBAN" style="ellipse;whiteSpace=wrap;html=1;" vertex="1" parent="1">
          <mxGeometry x="180" y="80" width="110" height="40" as="geometry" />
        </mxCell>
        <mxCell id="PxtAMPSgiuRWDMCf-Oh9-6" value="&lt;u&gt;IDNHANVIEN&lt;/u&gt;" style="ellipse;whiteSpace=wrap;html=1;" vertex="1" parent="1">
          <mxGeometry x="360" y="90" width="110" height="40" as="geometry" />
        </mxCell>
        <mxCell id="PxtAMPSgiuRWDMCf-Oh9-7" value="HOTEN" style="ellipse;whiteSpace=wrap;html=1;" vertex="1" parent="1">
          <mxGeometry x="490" y="90" width="110" height="40" as="geometry" />
        </mxCell>
        <mxCell id="PxtAMPSgiuRWDMCf-Oh9-8" value="DIACHI" style="ellipse;whiteSpace=wrap;html=1;" vertex="1" parent="1">
          <mxGeometry x="620" y="90" width="110" height="40" as="geometry" />
        </mxCell>
        <mxCell id="PxtAMPSgiuRWDMCf-Oh9-9" value="CHUCVU" style="ellipse;whiteSpace=wrap;html=1;" vertex="1" parent="1">
          <mxGeometry x="650" y="160" width="110" height="40" as="geometry" />
        </mxCell>
        <mxCell id="PxtAMPSgiuRWDMCf-Oh9-10" value="&lt;u&gt;IDDEAN&lt;/u&gt;" style="ellipse;whiteSpace=wrap;html=1;" vertex="1" parent="1">
          <mxGeometry x="60" y="370" width="110" height="40" as="geometry" />
        </mxCell>
        <mxCell id="PxtAMPSgiuRWDMCf-Oh9-11" value="TENDEAN" style="ellipse;whiteSpace=wrap;html=1;" vertex="1" parent="1">
          <mxGeometry x="70" y="430" width="110" height="40" as="geometry" />
        </mxCell>
        <mxCell id="PxtAMPSgiuRWDMCf-Oh9-12" value="PHONGBAN" style="ellipse;whiteSpace=wrap;html=1;" vertex="1" parent="1">
          <mxGeometry x="200" y="450" width="110" height="40" as="geometry" />
        </mxCell>
        <mxCell id="PxtAMPSgiuRWDMCf-Oh9-13" value="CHUCVU" style="ellipse;whiteSpace=wrap;html=1;" vertex="1" parent="1">
          <mxGeometry x="330" y="450" width="110" height="40" as="geometry" />
        </mxCell>
        <mxCell id="PxtAMPSgiuRWDMCf-Oh9-14" value="" style="endArrow=none;html=1;rounded=0;entryX=0.5;entryY=1;entryDx=0;entryDy=0;exitX=0.25;exitY=0;exitDx=0;exitDy=0;" edge="1" parent="1" source="PxtAMPSgiuRWDMCf-Oh9-1" target="PxtAMPSgiuRWDMCf-Oh9-4">
          <mxGeometry width="50" height="50" relative="1" as="geometry">
            <mxPoint x="40" y="240" as="sourcePoint" />
            <mxPoint x="90" y="190" as="targetPoint" />
          </mxGeometry>
        </mxCell>
        <mxCell id="PxtAMPSgiuRWDMCf-Oh9-15" value="" style="endArrow=none;html=1;rounded=0;entryX=0.5;entryY=1;entryDx=0;entryDy=0;" edge="1" parent="1" target="PxtAMPSgiuRWDMCf-Oh9-5">
          <mxGeometry width="50" height="50" relative="1" as="geometry">
            <mxPoint x="180" y="190" as="sourcePoint" />
            <mxPoint x="115" y="130" as="targetPoint" />
          </mxGeometry>
        </mxCell>
        <mxCell id="PxtAMPSgiuRWDMCf-Oh9-16" value="" style="endArrow=none;html=1;rounded=0;entryX=0.5;entryY=1;entryDx=0;entryDy=0;exitX=0.25;exitY=0;exitDx=0;exitDy=0;" edge="1" parent="1" source="PxtAMPSgiuRWDMCf-Oh9-2" target="PxtAMPSgiuRWDMCf-Oh9-6">
          <mxGeometry width="50" height="50" relative="1" as="geometry">
            <mxPoint x="380" y="250" as="sourcePoint" />
            <mxPoint x="430" y="200" as="targetPoint" />
          </mxGeometry>
        </mxCell>
        <mxCell id="PxtAMPSgiuRWDMCf-Oh9-17" value="" style="endArrow=none;html=1;rounded=0;entryX=0.5;entryY=1;entryDx=0;entryDy=0;exitX=0.5;exitY=0;exitDx=0;exitDy=0;" edge="1" parent="1" source="PxtAMPSgiuRWDMCf-Oh9-2" target="PxtAMPSgiuRWDMCf-Oh9-7">
          <mxGeometry width="50" height="50" relative="1" as="geometry">
            <mxPoint x="525" y="190" as="sourcePoint" />
            <mxPoint x="425" y="140" as="targetPoint" />
          </mxGeometry>
        </mxCell>
        <mxCell id="PxtAMPSgiuRWDMCf-Oh9-18" value="" style="endArrow=none;html=1;rounded=0;entryX=0;entryY=1;entryDx=0;entryDy=0;exitX=1;exitY=0;exitDx=0;exitDy=0;" edge="1" parent="1" source="PxtAMPSgiuRWDMCf-Oh9-2" target="PxtAMPSgiuRWDMCf-Oh9-8">
          <mxGeometry width="50" height="50" relative="1" as="geometry">
            <mxPoint x="535" y="200" as="sourcePoint" />
            <mxPoint x="435" y="150" as="targetPoint" />
          </mxGeometry>
        </mxCell>
        <mxCell id="PxtAMPSgiuRWDMCf-Oh9-20" value="" style="endArrow=none;html=1;rounded=0;entryX=0;entryY=0.5;entryDx=0;entryDy=0;exitX=1;exitY=0.5;exitDx=0;exitDy=0;" edge="1" parent="1" source="PxtAMPSgiuRWDMCf-Oh9-2" target="PxtAMPSgiuRWDMCf-Oh9-9">
          <mxGeometry width="50" height="50" relative="1" as="geometry">
            <mxPoint x="600" y="190" as="sourcePoint" />
            <mxPoint x="646" y="134" as="targetPoint" />
          </mxGeometry>
        </mxCell>
        <mxCell id="PxtAMPSgiuRWDMCf-Oh9-21" value="" style="endArrow=none;html=1;rounded=0;entryX=0;entryY=0.5;entryDx=0;entryDy=0;exitX=1;exitY=0.5;exitDx=0;exitDy=0;" edge="1" parent="1" source="PxtAMPSgiuRWDMCf-Oh9-10" target="PxtAMPSgiuRWDMCf-Oh9-3">
          <mxGeometry width="50" height="50" relative="1" as="geometry">
            <mxPoint x="150" y="370" as="sourcePoint" />
            <mxPoint x="200" y="320" as="targetPoint" />
          </mxGeometry>
        </mxCell>
        <mxCell id="PxtAMPSgiuRWDMCf-Oh9-22" value="" style="endArrow=none;html=1;rounded=0;entryX=0.25;entryY=1;entryDx=0;entryDy=0;exitX=1;exitY=0.5;exitDx=0;exitDy=0;" edge="1" parent="1" source="PxtAMPSgiuRWDMCf-Oh9-11" target="PxtAMPSgiuRWDMCf-Oh9-3">
          <mxGeometry width="50" height="50" relative="1" as="geometry">
            <mxPoint x="190" y="480" as="sourcePoint" />
            <mxPoint x="240" y="430" as="targetPoint" />
            <Array as="points" />
          </mxGeometry>
        </mxCell>
        <mxCell id="PxtAMPSgiuRWDMCf-Oh9-23" value="" style="endArrow=none;html=1;rounded=0;entryX=0.5;entryY=1;entryDx=0;entryDy=0;exitX=0.291;exitY=0.02;exitDx=0;exitDy=0;exitPerimeter=0;" edge="1" parent="1" source="PxtAMPSgiuRWDMCf-Oh9-13" target="PxtAMPSgiuRWDMCf-Oh9-3">
          <mxGeometry width="50" height="50" relative="1" as="geometry">
            <mxPoint x="290" y="500" as="sourcePoint" />
            <mxPoint x="340" y="450" as="targetPoint" />
          </mxGeometry>
        </mxCell>
        <mxCell id="PxtAMPSgiuRWDMCf-Oh9-25" value="" style="edgeStyle=entityRelationEdgeStyle;fontSize=12;html=1;endArrow=ERoneToMany;rounded=0;exitX=1;exitY=0.5;exitDx=0;exitDy=0;entryX=0;entryY=0.5;entryDx=0;entryDy=0;" edge="1" parent="1" source="PxtAMPSgiuRWDMCf-Oh9-1" target="PxtAMPSgiuRWDMCf-Oh9-2">
          <mxGeometry width="100" height="100" relative="1" as="geometry">
            <mxPoint x="310" y="330" as="sourcePoint" />
            <mxPoint x="410" y="230" as="targetPoint" />
          </mxGeometry>
        </mxCell>
        <mxCell id="PxtAMPSgiuRWDMCf-Oh9-27" value="" style="edgeStyle=entityRelationEdgeStyle;fontSize=12;html=1;endArrow=ERoneToMany;rounded=0;entryX=1;entryY=1;entryDx=0;entryDy=0;exitX=0;exitY=0;exitDx=0;exitDy=0;" edge="1" parent="1" source="PxtAMPSgiuRWDMCf-Oh9-3" target="PxtAMPSgiuRWDMCf-Oh9-1">
          <mxGeometry width="100" height="100" relative="1" as="geometry">
            <mxPoint x="290" y="330" as="sourcePoint" />
            <mxPoint x="500" y="300" as="targetPoint" />
            <Array as="points">
              <mxPoint x="280" y="290" />
              <mxPoint x="300" y="270" />
              <mxPoint x="280" y="290" />
            </Array>
          </mxGeometry>
        </mxCell>
      </root>
    </mxGraphModel>
  </diagram>
</mxfile>
